<svg viewBox="0 0 32 32" xmlns="http://www.w3.org/2000/svg" aria-hidden="true" role="presentation" focusable="false" display="block" height= "16px" width= "16px" fill= "currentColor">
  <path d="M9.788 1.105c-1.596.075-2.686.33-3.639.704a7.93 7.93 0 0 0-2.654 1.735A7.993 7.993 0 0 0 1.77 6.203a11.59 11.59 0 0 0-.69 3.643c-.07 1.597-.086 2.11-.078 6.184.008 4.073.026 4.584.103 6.184.076 1.596.33 2.685.705 3.638a7.93 7.93 0 0 0 1.735 2.654 7.993 7.993 0 0 0 2.661 1.725 11.59 11.59 0 0 0 3.642.69c1.597.07 2.111.086 6.183.078s4.585-.026 6.185-.102a11.58 11.58 0 0 0 3.637-.704 7.93 7.93 0 0 0 2.654-1.735 7.993 7.993 0 0 0 1.725-2.66 11.59 11.59 0 0 0 .69-3.641c.07-1.601.086-2.113.079-6.185s-.026-4.583-.102-6.183a11.58 11.58 0 0 0-.704-3.64 7.93 7.93 0 0 0-1.735-2.654 7.993 7.993 0 0 0-2.66-1.724 11.59 11.59 0 0 0-3.642-.69c-1.597-.07-2.111-.087-6.184-.079s-4.584.025-6.184.103zm.175 27.116a9.687 9.687 0 0 1-2.786-.51 4.997 4.997 0 0 1-1.727-1.119 4.993 4.993 0 0 1-1.125-1.723 9.69 9.69 0 0 1-.522-2.785c-.074-1.58-.09-2.055-.099-6.06s.007-4.479.076-6.06a9.69 9.69 0 0 1 .51-2.785 4.997 4.997 0 0 1 1.119-1.727 4.993 4.993 0 0 1 1.723-1.125 9.69 9.69 0 0 1 2.784-.522c1.582-.075 2.056-.09 6.06-.099s4.479.006 6.062.076a9.687 9.687 0 0 1 2.785.51 4.997 4.997 0 0 1 1.727 1.119 4.993 4.993 0 0 1 1.126 1.723 9.69 9.69 0 0 1 .521 2.783c.075 1.582.093 2.056.1 6.06s-.007 4.479-.076 6.06a9.687 9.687 0 0 1-.51 2.787 4.997 4.997 0 0 1-1.119 1.727 4.993 4.993 0 0 1-1.723 1.125 9.69 9.69 0 0 1-2.783.522c-1.582.074-2.056.09-6.062.099s-4.478-.008-6.06-.076zm12.228-20.238a1.497 1.497 0 0 0 1.114 1.661 1.5 1.5 0 0 0 1.961-.394 1.5 1.5 0 0 0-.386-1.962 1.5 1.5 0 0 0-1.665-1.108 1.498 1.498 0 0 0-1.796 1.803zM8.298 15.015c.008 4.254 3.463 7.695 7.716 7.687 4.253-.008 7.696-3.463 7.688-7.717s-3.464-7.696-7.718-7.687c-4.253.008-7.695 3.464-7.686 7.717zm2.702 0c-.006-2.761 2.229-5.005 4.99-5.01s5.005 2.229 5.01 4.99-2.229 5.005-4.99 5.01c-1.326.003-2.599-.521-3.539-1.457a5.007 5.007 0 0 1-1.471-3.533z"/>
</svg>
